<svg width="431" height="431" viewBox="0 0 431 431" fill="none" xmlns="http://www.w3.org/2000/svg">
<circle cx="215.505" cy="215.505" r="215.505" fill="#828284"/>
<circle cx="206.885" cy="206.885" r="206.885" fill="#B1B1B3"/>
<path d="M150.74 149.804L143.75 174.966L150.74 187.547L173.106 211.311L224.827 209.913L290.527 141.417L289.129 127.438H192.676L188.482 131.632L150.74 149.804Z" fill="#FC5C01"/>
<path d="M258.373 218.301H192.673L121.382 292.388L124.178 309.163L252.782 310.56L291.922 272.818V253.248L258.373 218.301Z" fill="#83C501"/>
<path fill-rule="evenodd" clip-rule="evenodd" d="M320.517 112.063H188.863V130.871H282.904V149.677H301.711V130.871H320.517V112.063ZM188.863 187.294H207.67V168.487H226.476V149.681H245.283V168.488H226.477V187.294H245.283V206.101H226.476V187.295H207.671V206.101H188.863V187.294ZM151.246 262.526H132.439V281.333H151.247V262.527H170.053V243.72H151.246V262.526ZM113.63 281.332H132.437V300.139H113.63V281.332ZM111.28 300.144H94.8232V318.951H111.28V318.951H264.093V300.144H113.631H111.28ZM264.092 224.911H226.477V243.717H207.67V224.911H188.864V243.717H170.057V224.911V224.91V206.104H264.096V224.91H282.899V243.717H264.092V224.911ZM132.439 149.681H151.247V187.294H170.053V206.101H151.246V187.296H132.439V149.681ZM151.246 130.87H188.86V149.677H151.246V130.87ZM282.899 149.681H264.092V168.487H245.286V187.295H264.093V168.488H282.899V149.681ZM188.863 243.72H207.671V262.527H188.864V281.333H170.057V262.526H188.863V243.72ZM264.092 281.332H282.899V300.139H264.092V281.332ZM301.711 243.72H282.904V281.334H301.711V243.72Z" fill="black"/>
</svg>
